# Blender v2.80 (sub 75) OBJ File: 'cabin_a.blend'
# www.blender.org
o Flat_Plane.013
v -1.125919 1.995847 -1.134025
v -1.125919 -1.747334 -1.134025
v -1.125919 1.995847 1.121514
v -1.125919 -1.747334 1.121514
v -0.001230 2.000445 0.865975
v 1.123756 2.000445 0.865975
v -0.001230 2.000445 -1.134025
v 1.123756 2.000445 -1.134025
v -1.126216 2.000445 0.865974
v -0.001230 2.000445 0.865974
v -1.126216 2.000445 -1.134026
v -0.001230 2.000445 -1.134026
v 1.123755 1.995847 -1.134025
v 1.123755 -1.747334 -1.134025
v -1.126216 1.995847 -1.134025
v -1.126216 -1.747334 -1.134025
v 1.123755 1.995847 -0.009040
v 1.123755 -1.747334 -0.009040
v 1.123755 1.995847 -1.134025
v 1.123755 -1.747334 -1.134025
vt 0.500000 1.000001
vt 0.500000 0.000001
vt 0.833333 0.000001
vt 0.833333 1.000001
vt 0.999999 0.500000
vt 0.833333 0.500000
vt 0.833333 0.000001
vt 0.999999 0.000001
vt 0.833333 0.999998
vt 0.999999 0.999999
vt 0.999999 0.500000
vt 0.833333 0.500000
vt 0.166667 1.000001
vt 0.166667 0.000001
vt 0.500000 0.000001
vt 0.500000 1.000001
vt 0.000000 1.000000
vt 0.000000 0.000001
vt 0.166667 0.000001
vt 0.166667 1.000001
vn -1.0000 -0.0000 0.0000
vn 0.0000 1.0000 0.0000
vn 0.0000 0.0000 -1.0000
vn 1.0000 0.0000 0.0000
s off
f 1/1/1 2/2/1 4/3/1 3/4/1
f 5/5/2 6/6/2 8/7/2 7/8/2
f 9/9/2 10/10/2 12/11/2 11/12/2
f 13/13/3 14/14/3 16/15/3 15/16/3
f 17/17/4 18/18/4 20/19/4 19/20/4
